<svg width="40" height="40" viewBox="0 0 40 40" fill="none" xmlns="http://www.w3.org/2000/svg">
<path d="M28.8889 23.5H11.1111C10.5217 23.5 9.95651 23.7063 9.53976 24.0736C9.12302 24.4408 8.88889 24.939 8.88889 25.4583C8.88889 25.9777 9.12302 26.4758 9.53976 26.8431C9.95651 27.2103 10.5217 27.4167 11.1111 27.4167H28.8889C29.4783 27.4167 30.0435 27.2103 30.4602 26.8431C30.877 26.4758 31.1111 25.9777 31.1111 25.4583C31.1111 24.939 30.877 24.4408 30.4602 24.0736C30.0435 23.7063 29.4783 23.5 28.8889 23.5ZM28.8889 15.6667H15.5556C14.9662 15.6667 14.401 15.873 13.9842 16.2402C13.5675 16.6075 13.3333 17.1056 13.3333 17.625C13.3333 18.1444 13.5675 18.6425 13.9842 19.0098C14.401 19.377 14.9662 19.5833 15.5556 19.5833H28.8889C29.4783 19.5833 30.0435 19.377 30.4602 19.0098C30.877 18.6425 31.1111 18.1444 31.1111 17.625C31.1111 17.1056 30.877 16.6075 30.4602 16.2402C30.0435 15.873 29.4783 15.6667 28.8889 15.6667ZM37.7778 3.91667H31.1111V1.95833C31.1111 1.43895 30.877 0.940841 30.4602 0.573582C30.0435 0.206324 29.4783 0 28.8889 0C28.2995 0 27.7343 0.206324 27.3175 0.573582C26.9008 0.940841 26.6667 1.43895 26.6667 1.95833V3.91667H22.2222V1.95833C22.2222 1.43895 21.9881 0.940841 21.5713 0.573582C21.1546 0.206324 20.5894 0 20 0C19.4106 0 18.8454 0.206324 18.4287 0.573582C18.0119 0.940841 17.7778 1.43895 17.7778 1.95833V3.91667H13.3333V1.95833C13.3333 1.43895 13.0992 0.940841 12.6825 0.573582C12.2657 0.206324 11.7005 0 11.1111 0C10.5217 0 9.95651 0.206324 9.53976 0.573582C9.12302 0.940841 8.88889 1.43895 8.88889 1.95833V3.91667H2.22222C1.63285 3.91667 1.06762 4.12299 0.650874 4.49025C0.234126 4.85751 0 5.35562 0 5.875V33.2917C0 34.8498 0.702379 36.3441 1.95262 37.4459C3.20286 38.5477 4.89856 39.1667 6.66667 39.1667H33.3333C35.1014 39.1667 36.7971 38.5477 38.0474 37.4459C39.2976 36.3441 40 34.8498 40 33.2917V5.875C40 5.35562 39.7659 4.85751 39.3491 4.49025C38.9324 4.12299 38.3671 3.91667 37.7778 3.91667ZM35.5556 33.2917C35.5556 33.8111 35.3214 34.3092 34.9047 34.6764C34.4879 35.0437 33.9227 35.25 33.3333 35.25H6.66667C6.0773 35.25 5.51207 35.0437 5.09532 34.6764C4.67857 34.3092 4.44444 33.8111 4.44444 33.2917V7.83333H8.88889V9.79167C8.88889 10.311 9.12302 10.8092 9.53976 11.1764C9.95651 11.5437 10.5217 11.75 11.1111 11.75C11.7005 11.75 12.2657 11.5437 12.6825 11.1764C13.0992 10.8092 13.3333 10.311 13.3333 9.79167V7.83333H17.7778V9.79167C17.7778 10.311 18.0119 10.8092 18.4287 11.1764C18.8454 11.5437 19.4106 11.75 20 11.75C20.5894 11.75 21.1546 11.5437 21.5713 11.1764C21.9881 10.8092 22.2222 10.311 22.2222 9.79167V7.83333H26.6667V9.79167C26.6667 10.311 26.9008 10.8092 27.3175 11.1764C27.7343 11.5437 28.2995 11.75 28.8889 11.75C29.4783 11.75 30.0435 11.5437 30.4602 11.1764C30.877 10.8092 31.1111 10.311 31.1111 9.79167V7.83333H35.5556V33.2917Z" fill="#559614"/>
</svg>
