<svg width="28" height="33" viewBox="0 0 28 33" fill="none" xmlns="http://www.w3.org/2000/svg">
<path d="M14 0.916668C11.8783 0.916668 9.84344 1.74196 8.34315 3.211C6.84285 4.68003 6 6.67247 6 8.75C6 10.8275 6.84285 12.82 8.34315 14.289C9.84344 15.758 11.8783 16.5833 14 16.5833C16.1217 16.5833 18.1566 15.758 19.6569 14.289C21.1571 12.82 22 10.8275 22 8.75C22 6.67247 21.1571 4.68003 19.6569 3.211C18.1566 1.74196 16.1217 0.916668 14 0.916668ZM4.018 18.5417C3.4912 18.5393 2.96912 18.6389 2.48174 18.8347C1.99436 19.0305 1.55127 19.3187 1.17793 19.6826C0.804587 20.0465 0.508338 20.4791 0.306195 20.9554C0.104051 21.4318 -5.33373e-06 21.9425 2.05053e-10 22.4583C2.05054e-10 25.7699 1.666 28.2668 4.27 29.8941C6.834 31.4941 10.29 32.25 14 32.25C17.71 32.25 21.166 31.4941 23.73 29.8941C26.334 28.2687 28 25.7679 28 22.4583C28 21.4196 27.5786 20.4234 26.8284 19.6888C26.0783 18.9543 25.0609 18.5417 24 18.5417H4.018Z" fill="#141496"/>
</svg>
