<svg width="30" height="33" viewBox="0 0 30 33" fill="none" xmlns="http://www.w3.org/2000/svg">
<path d="M21.6667 24.7431H10.625C9.98611 24.7431 9.46556 24.9334 9.06333 25.3142C8.66111 25.695 8.41778 26.1302 8.33333 26.6198C8.24889 27.1094 8.32555 27.5854 8.56333 28.0477C8.80111 28.5101 9.22444 28.8501 9.83333 29.0677L19.375 32.7804C19.6528 32.8892 19.9239 32.9235 20.1883 32.8832C20.4528 32.8429 20.6956 32.7543 20.9167 32.6172C21.1378 32.4801 21.3183 32.2968 21.4583 32.0672C21.5983 31.8377 21.6678 31.5722 21.6667 31.2708V24.7431ZM11.6667 0.263885C13.5 0.263885 15.0694 0.903064 16.375 2.18142C17.6806 3.45978 18.3333 4.99652 18.3333 6.79166C18.3333 8.5868 17.6806 10.1236 16.375 11.4019C15.0694 12.6803 13.5 13.3194 11.6667 13.3194C9.83333 13.3194 8.26389 12.6803 6.95833 11.4019C5.65278 10.1236 5 8.5868 5 6.79166C5 4.99652 5.65278 3.45978 6.95833 2.18142C8.26389 0.903064 9.83333 0.263885 11.6667 0.263885ZM27.0417 14.9514C27.8472 14.9514 28.5417 15.2163 29.125 15.7461C29.7083 16.276 30 16.9358 30 17.7257C30 18.3513 29.8194 18.9225 29.4583 19.4392C29.0972 19.956 28.6111 20.3232 28 20.5408L25 21.4792H10.625C9.04167 21.4792 7.70833 22.0095 6.625 23.0703C5.54167 24.1311 5 25.4366 5 26.987C5 27.4766 5.06944 27.946 5.20833 28.3953C5.34722 28.8447 5.52778 29.2592 5.75 29.6389H0V23.1111C0 20.8536 0.812777 18.9295 2.43833 17.3389C4.06389 15.7483 6.02889 14.9525 8.33333 14.9514H27.0417Z" fill="#551496"/>
</svg>
