<svg width="38" height="37" viewBox="0 0 38 37" fill="none" xmlns="http://www.w3.org/2000/svg">
<path d="M29.1001 36.5347H31.8667C33.2667 36.5347 34.4168 35.474 34.5834 34.1358L37.3334 7.24132H29.0001V0.631943H25.7168V7.24132H17.4334L17.9334 11.0601C20.7834 11.8271 23.4501 13.2142 25.0501 14.7483C27.4501 17.0656 29.1001 19.4646 29.1001 23.3813V36.5347ZM0.666748 34.9028V33.2708H25.7168V34.9028C25.7168 35.784 24.9667 36.5347 24.0001 36.5347H2.33341C1.41675 36.5347 0.666748 35.784 0.666748 34.9028ZM25.7168 23.4792C25.7168 10.4236 0.666748 10.4236 0.666748 23.4792H25.7168ZM0.666748 26.7431H25.6667V30.0069H0.666748V26.7431Z" fill="#145596"/>
</svg>
