<svg width="38" height="33" viewBox="0 0 38 33" fill="none" xmlns="http://www.w3.org/2000/svg">
<path d="M14 0.263889C17.2376 0.264096 20.3646 1.41748 22.7977 3.5089C25.2307 5.60033 26.8038 8.48697 27.2233 11.6304L30.9733 17.4058C31.22 17.7861 31.17 18.3524 30.5983 18.5939L27.3333 19.9615V24.7431C27.3333 25.6087 26.9821 26.4389 26.357 27.051C25.7319 27.6631 24.8841 28.0069 24 28.0069H20.6683L20.6667 32.9028H5.66667V26.8744C5.66667 24.9487 4.94 23.1258 3.59334 21.4808C2.02293 19.5609 1.03841 17.2456 0.753206 14.8016C0.468001 12.3577 0.893712 9.88465 1.9813 7.66731C3.06888 5.44997 4.77408 3.57858 6.90046 2.26875C9.02683 0.958927 11.4879 0.26395 14 0.263889ZM34.2567 26.5415L31.4817 24.73C33.1277 22.3191 34.0043 19.4833 34 16.5833C34.0052 13.6829 33.1292 10.8465 31.4833 8.43503L34.2567 6.62358C36.2687 9.57107 37.3397 13.0381 37.3333 16.5833C37.3333 20.2683 36.2 23.6921 34.2567 26.5415Z" fill="#149655"/>
</svg>
