<svg width="34" height="33" viewBox="0 0 34 33" fill="none" xmlns="http://www.w3.org/2000/svg">
<path fill-rule="evenodd" clip-rule="evenodd" d="M16.9999 32.9028C9.14325 32.9028 5.21492 32.9028 2.77325 30.512C0.333252 28.1244 0.333252 24.2763 0.333252 16.5833C0.333252 8.89035 0.333252 5.04385 2.77325 2.65306C5.21659 0.263889 9.14325 0.263889 16.9999 0.263889C24.8566 0.263889 28.7849 0.263889 31.2249 2.65306C33.6666 5.04549 33.6666 8.89035 33.6666 16.5833C33.6666 24.2763 33.6666 28.1228 31.2249 30.512C28.7866 32.9028 24.8566 32.9028 16.9999 32.9028ZM11.9999 24.3351C11.6684 24.3351 11.3505 24.2061 11.116 23.9766C10.8816 23.747 10.7499 23.4357 10.7499 23.1111C10.7499 22.7865 10.8816 22.4752 11.116 22.2456C11.3505 22.0161 11.6684 21.8872 11.9999 21.8872H21.9999C22.3314 21.8872 22.6494 22.0161 22.8838 22.2456C23.1182 22.4752 23.2499 22.7865 23.2499 23.1111C23.2499 23.4357 23.1182 23.747 22.8838 23.9766C22.6494 24.2061 22.3314 24.3351 21.9999 24.3351H11.9999ZM13.6666 14.1354C13.6666 15.4867 12.9199 16.5833 11.9999 16.5833C11.0799 16.5833 10.3333 15.4867 10.3333 14.1354C10.3333 12.7842 11.0799 11.6875 11.9999 11.6875C12.9199 11.6875 13.6666 12.7842 13.6666 14.1354ZM21.9999 16.5833C22.9199 16.5833 23.6666 15.4867 23.6666 14.1354C23.6666 12.7842 22.9199 11.6875 21.9999 11.6875C21.0799 11.6875 20.3333 12.7842 20.3333 14.1354C20.3333 15.4867 21.0799 16.5833 21.9999 16.5833Z" fill="#149696"/>
</svg>
