<svg width="28" height="30" viewBox="0 0 28 30" fill="none" xmlns="http://www.w3.org/2000/svg">
<path d="M24.0001 8.68749H14.0001V0.527771H7.33341C3.66675 0.527771 0.666748 3.46527 0.666748 7.05555V16.8472C0.666748 18.6424 2.16675 20.1111 4.00008 20.1111H7.33341V24.8437C6.33341 24.191 5.33342 23.5382 4.50008 22.7222L2.16675 25.0069C5.16675 28.1076 9.33342 29.9028 14.0001 29.9028C18.6667 29.9028 22.8334 28.1076 25.8334 25.1701L23.5001 22.8854C22.6667 23.7014 21.8334 24.3542 20.8334 25.0069V20.1111H24.1667C26.0001 20.1111 27.5001 18.6424 27.5001 16.8472V11.9514C27.3334 10.1562 25.8334 8.68749 24.0001 8.68749ZM17.3334 26.3125C16.3334 26.6389 15.1667 26.6389 14.0001 26.6389C12.8334 26.6389 11.6667 26.4757 10.6667 26.3125V20.1111H17.3334V26.3125Z" fill="#961414"/>
</svg>
