<svg width="34" height="33" viewBox="0 0 34 33" fill="none" xmlns="http://www.w3.org/2000/svg">
<path d="M18.1782 0.742063L33.1782 15.4296C34.2282 16.4577 33.4849 18.2153 31.9999 18.2153H30.3332V28.007C30.3332 29.3054 29.8064 30.5507 28.8688 31.4688C27.9311 32.387 26.6593 32.9028 25.3332 32.9028H23.6666V21.4792C23.6666 20.2304 23.1794 19.0288 22.3044 18.1202C21.4295 17.2116 20.2331 16.6648 18.9599 16.5915L18.6666 16.5833H15.3332C14.0072 16.5833 12.7354 17.0992 11.7977 18.0173C10.86 18.9355 10.3332 20.1807 10.3332 21.4792V32.9028H8.66657C7.34049 32.9028 6.06872 32.387 5.13103 31.4688C4.19335 30.5507 3.66657 29.3054 3.66657 28.007V18.2153H1.9999C0.516569 18.2153 -0.228431 16.4577 0.821569 15.4296L15.8216 0.742063C16.1341 0.43612 16.558 0.264252 16.9999 0.264252C17.4418 0.264252 17.8657 0.43612 18.1782 0.742063ZM18.6666 19.8472C19.1086 19.8472 19.5325 20.0192 19.8451 20.3252C20.1576 20.6313 20.3332 21.0464 20.3332 21.4792V32.9028H13.6666V21.4792C13.6666 21.0795 13.8165 20.6937 14.0878 20.395C14.359 20.0963 14.7328 19.9054 15.1382 19.8587L15.3332 19.8472H18.6666Z" fill="#961455"/>
</svg>
