<svg width="34" height="39" viewBox="0 0 34 39" fill="none" xmlns="http://www.w3.org/2000/svg">
<path fill-rule="evenodd" clip-rule="evenodd" d="M5.84581 0.614218L22.7315 0.605825V7.04874L5.84581 7.05714C5.08314 7.05799 4.34022 6.81975 3.72581 6.37731L0.98867 4.3994C0.898866 4.33436 0.825889 4.24961 0.775602 4.15195C0.725315 4.05429 0.69912 3.94645 0.69912 3.83707C0.69912 3.7277 0.725315 3.61986 0.775602 3.5222C0.825889 3.42454 0.898866 3.33979 0.98867 3.27475L3.72867 1.29404C4.34115 0.851737 5.08192 0.612573 5.84296 0.61142L5.84581 0.614218ZM29.683 7.04315L26.303 7.04594V0.603027H29.6944C31.5058 0.631004 32.8915 2.20606 32.8915 3.82029C32.8915 5.43731 31.5058 7.01517 29.6944 7.04315H29.683ZM12.7372 13.5056C13.6944 13.8805 14.5087 14.2918 15.2144 14.7002V38.1667C14.1256 37.3655 12.9346 36.7072 11.6715 36.2083C9.57153 35.3858 6.54296 34.706 1.92296 34.706C1.54408 34.706 1.18071 34.5586 0.912804 34.2963C0.644894 34.034 0.494385 33.6782 0.494385 33.3072V13.1979C0.494385 12.8269 0.644894 12.4711 0.912804 12.2088C1.18071 11.9465 1.54408 11.7991 1.92296 11.7991C6.83724 11.7991 10.2372 12.5237 12.7372 13.5056ZM22.3258 36.2083C20.783 36.8154 19.7001 37.512 18.783 38.1639V14.7002C19.4887 14.2918 20.3058 13.8805 21.263 13.5056C23.763 12.5237 27.163 11.7991 32.0772 11.7991C32.4561 11.7991 32.8195 11.9465 33.0874 12.2088C33.3553 12.4711 33.5058 12.8269 33.5058 13.1979V33.3072C33.5058 33.6782 33.3553 34.034 33.0874 34.2963C32.8195 34.5586 32.4561 34.706 32.0772 34.706C27.4572 34.706 24.4287 35.383 22.3258 36.2083Z" fill="#961496"/>
</svg>
