<svg width="40" height="40" viewBox="0 0 40 40" fill="none" xmlns="http://www.w3.org/2000/svg">
<path d="M6.31188 39.1667V30.7458C4.31312 29.0486 2.7618 27.0661 1.65792 24.7984C0.554043 22.5306 0.00140264 20.1395 0 17.625C0 12.7292 1.84097 8.56771 5.5229 5.14062C9.20483 1.71354 13.6757 0 18.9356 0C23.3189 0 27.2028 1.19981 30.5874 3.59942C33.972 5.99903 36.172 9.12388 37.1875 12.974L39.9227 23.0104C40.098 23.6306 39.9752 24.1939 39.5545 24.7005C39.1337 25.207 38.5726 25.4596 37.8713 25.4583H33.6634V31.3333C33.6634 32.4104 33.2517 33.3328 32.4283 34.1005C31.605 34.8681 30.614 35.2513 29.4554 35.25H25.2475V39.1667H6.31188ZM18.9356 27.4167C19.5318 27.4167 20.0318 27.2287 20.4358 26.8527C20.8397 26.4767 21.041 26.0119 21.0396 25.4583C21.0382 24.9048 20.8362 24.44 20.4337 24.064C20.0311 23.688 19.5318 23.5 18.9356 23.5C18.3395 23.5 17.8402 23.688 17.4376 24.064C17.0351 24.44 16.8331 24.9048 16.8317 25.4583C16.8303 26.0119 17.0323 26.4773 17.4376 26.8546C17.843 27.2319 18.3423 27.4193 18.9356 27.4167ZM17.3577 21.15H20.5662C20.5662 20.334 20.6805 19.6734 20.9092 19.1682C21.1378 18.6629 21.6021 18.0506 22.302 17.3313C22.9332 16.6785 23.5468 16.0179 24.1429 15.3494C24.7391 14.681 25.0371 13.8076 25.0371 12.7292C25.0371 11.3583 24.4677 10.1997 23.3287 9.25313C22.1898 8.3066 20.778 7.83333 19.0934 7.83333C17.6908 7.83333 16.42 8.20868 15.2811 8.95937C14.1421 9.71007 13.344 10.6892 12.8868 11.8969L15.7797 13.0229C16.0252 12.3049 16.4551 11.7252 17.0694 11.2839C17.6838 10.8426 18.3585 10.6227 19.0934 10.624C19.8649 10.624 20.5052 10.8198 21.0144 11.2115C21.5235 11.6031 21.7774 12.109 21.776 12.7292C21.776 13.4146 21.5572 14.0269 21.1196 14.5661C20.6819 15.1053 20.1644 15.6517 19.5668 16.2052C18.8655 16.8906 18.322 17.576 17.9363 18.2615C17.5505 18.9469 17.3577 19.9097 17.3577 21.15Z" fill="#969614"/>
</svg>
