<svg width="40" height="40" viewBox="0 0 40 40" fill="none" xmlns="http://www.w3.org/2000/svg">
<path d="M8.88889 0C6.44444 0 4.44444 1.7625 4.44444 3.91667C4.44444 6.07083 6.44444 7.83333 8.88889 7.83333C11.3333 7.83333 13.3333 6.09042 13.3333 3.91667C13.3333 1.74292 11.3556 0 8.88889 0ZM4.44444 9.79167C1.97778 9.79167 0 11.5346 0 13.7083V25.4583H4.44444V39.1667H15.5556V18.8L21.1778 27.4167H26.6L28.8889 24.7925V39.1667H37.7778V29.375H40V23.5C40 21.3263 38.0222 19.5833 35.5556 19.5833H30C28.6667 19.5833 27.4889 20.0925 26.6667 20.915C25.9333 21.7375 25.1556 22.6383 24.4444 23.5H23.7556L15.5556 11.0842C15.2 10.5358 13.8222 9.79167 12.2222 9.79167H4.44444ZM33.3333 11.75C31.4889 11.75 30 13.0621 30 14.6875C30 16.3129 31.4889 17.625 33.3333 17.625C35.1778 17.625 36.6667 16.3129 36.6667 14.6875C36.6667 13.0621 35.1778 11.75 33.3333 11.75Z" fill="#149614"/>
</svg>
