<svg width="40" height="40" viewBox="0 0 40 40" fill="none" xmlns="http://www.w3.org/2000/svg">
<path d="M34.9367 10H30.8333V5.645C30.8333 2.53167 28.3767 0 25.255 0H14.7458C11.6225 0 9.16667 2.53167 9.16667 5.645V10H5.0625C2.26583 10 0 12.1592 0 14.9475V34.12C0 36.9075 2.26583 39.1667 5.0625 39.1667H34.9367C37.7325 39.1667 40 36.9075 40 34.1192V14.9475C40 12.1592 37.7325 10 34.9367 10ZM12.5 5.645C12.5 4.47917 13.5767 3.33333 14.7458 3.33333H25.255C26.4208 3.33333 27.5 4.47917 27.5 5.645V10H12.5V5.645ZM29.1667 28.3333H23.3333V34.1667H16.6667V28.3333H10.8333V21.6667H16.6667V15.8333H23.3333V21.6667H29.1667V28.3333Z" fill="#965514"/>
</svg>
